# xmcd
#
# Track frame offsets: 
#        150
#        19705
#        40130
#        59947
#        77417
#        96730
#        109345
#        131927
#        149287
#        167635
#        185130
#        206002
#        229075
#        246327
#        265910
#
# Disc length: 3772 seconds
#
# Revision: 3
# Processed by: cddbd v1.5.2PL0 Copyright (c) Steve Scherf et al.
# Submitted via: ExactAudioCopyFreeDBPlugin 1.0
#
DISCID=e70eba0f
DTITLE=Counting Crows - Hard Candy
DYEAR=2003
DGENRE=Alternative
TTITLE0=Hard Candy
TTITLE1=American Girls
TTITLE2=Good Time
TTITLE3=If I Could Give All My Love -Or- Richard Manuel Is Dead
TTITLE4=Goodnight L.A.
TTITLE5=Butterfly In Reverse
TTITLE6=Miami
TTITLE7=New Frontier
TTITLE8=Carriage
TTITLE9=Black And Blue
TTITLE10=Why Should You Come When I Call?
TTITLE11=Up All Night (Frankie Miller Goes To Hollywood)
TTITLE12=Holiday In Spain
TTITLE13=4 White Stallions
TTITLE14=Big Yellow Taxi
EXTD=Label: Geffen\n493 559-2
EXTT0=
EXTT1=
EXTT2=
EXTT3=
EXTT4=
EXTT5=
EXTT6=
EXTT7=
EXTT8=
EXTT9=
EXTT10=
EXTT11=
EXTT12=
EXTT13=
EXTT14=
PLAYORDER=
